<svg xmlns="http://www.w3.org/2000/svg" xmlns:xlink="http://www.w3.org/1999/xlink" width="320" height="320" viewBox="0 0 320 320">
	<symbol id="logo-profm" viewBox="0 0 320 320">
		<title>profm</title>
		<path fill="#fff" d="M57.678 244.62v11.934h6.776c1.848 0 3.323-0.551 4.427-1.654 1.103-1.103 1.655-2.555 1.655-4.351 0-1.797-0.552-3.233-1.655-4.312-1.104-1.078-2.58-1.618-4.427-1.618zM78.468 237.844c3.695 3.182 5.543 7.417 5.543 12.705 0 5.185-1.861 9.406-5.582 12.666s-8.406 4.891-14.052 4.891h-6.699v15.784h-13.243v-50.818h19.942c5.698 0 10.394 1.59 14.091 4.774z"></path>
		<path fill="#fff" d="M101.35 256.553h6.776c1.848 0 3.323-0.551 4.428-1.655 1.103-1.102 1.655-2.554 1.655-4.351s-0.552-3.233-1.655-4.311c-1.104-1.078-2.58-1.618-4.428-1.618h-6.776zM118.288 283.888l-11.472-15.784h-5.468v15.784h-13.243v-50.818h19.942c5.698 0 10.395 1.59 14.091 4.774 3.696 3.182 5.544 7.417 5.544 12.704 0 6.416-2.669 11.242-8.007 14.476l13.397 18.865z"></path>
		<path fill="#fff" d="M146.946 248.238c-2.567 2.618-3.851 6.032-3.851 10.241 0 4.26 1.284 7.686 3.851 10.279s5.903 3.887 10.009 3.887c4.004 0 7.315-1.295 9.933-3.887s3.927-6.020 3.927-10.279c0-4.209-1.308-7.623-3.927-10.241s-5.929-3.928-9.933-3.928c-4.106 0-7.443 1.309-10.009 3.928zM176.359 239.731c5.339 5.055 8.008 11.304 8.008 18.749s-2.669 13.692-8.008 18.749c-5.338 5.056-11.833 7.584-19.48 7.584-7.649 0-14.117-2.527-19.404-7.584s-7.931-11.305-7.931-18.749c0-7.444 2.643-13.694 7.931-18.749 5.288-5.057 11.756-7.586 19.404-7.586 7.647 0 14.141 2.529 19.48 7.586z"></path>
		<path fill="#fff" d="M220.57 245.005h-21.252v9.701h17.247v11.935h-17.247v17.246h-13.243v-50.818h34.495z"></path>
		<path fill="#fff" d="M275.559 232.145v51.743h-13.243v-21.328l-10.549 12.32h-4.235l-10.472-12.243v21.251h-13.243v-51.743h4.235l21.637 26.411 21.636-26.411z"></path>
		<path fill="#fff" d="M48.642 305.101c-1.466 1.512-2.199 3.39-2.199 5.634s0.733 4.128 2.199 5.648c1.466 1.52 3.303 2.281 5.512 2.281 2.19 0 4.019-0.76 5.484-2.281s2.199-3.403 2.199-5.648c0-2.226-0.738-4.099-2.213-5.62s-3.299-2.281-5.471-2.281c-2.209 0-4.046 0.755-5.512 2.267zM60.643 304.192c1.792 1.774 2.689 3.964 2.689 6.571 0 2.589-0.897 4.774-2.689 6.557s-3.964 2.675-6.517 2.675c-2.57 0-4.742-0.891-6.516-2.675s-2.661-3.968-2.661-6.557c0-2.607 0.887-4.797 2.661-6.571s3.946-2.662 6.516-2.662c2.553 0 4.725 0.888 6.517 2.662z"></path>
		<path fill="#fff" d="M76.985 303.079v7.331h4.616c1.285 0 2.277-0.34 2.973-1.019s1.046-1.561 1.046-2.648c0-1.085-0.349-1.969-1.046-2.646-0.697-0.679-1.688-1.019-2.973-1.019zM85.62 303.186c0.977 0.924 1.466 2.099 1.466 3.531 0 1.466-0.484 2.661-1.453 3.584s-2.294 1.384-3.978 1.384h-4.67v8.037h-1.412v-17.921h6.082c1.665 0 2.987 0.462 3.965 1.384z"></path>
		<path fill="#fff" d="M110.244 303.079h-9.801v6.326h7.63v1.276h-7.63v7.766h10.128v1.276h-11.54v-17.921h11.214z"></path>
		<path fill="#fff" d="M136.309 301.802v18.192h-0.57l-11.865-15.205v14.934h-1.412v-18.194h0.543l11.892 15.26v-14.988z"></path>
		<path fill="#fff" d="M166.933 310.409h4.616c1.284 0 2.276-0.34 2.972-1.019s1.046-1.561 1.046-2.648c0-1.085-0.348-1.969-1.046-2.646-0.697-0.679-1.688-1.019-2.972-1.019h-4.616zM177.332 319.723l-6.029-8.037h-4.372v8.037h-1.412v-17.921h6.082c1.665 0 2.987 0.462 3.964 1.384s1.466 2.1 1.466 3.531c0 1.249-0.362 2.313-1.087 3.19s-1.729 1.436-3.013 1.671l6.055 8.145z"></path>
		<path fill="#fff" d="M192.508 314.184h8.336l-4.155-10.128zM201.386 315.46h-9.395l-1.791 4.263h-1.466l7.684-18.193h0.57l7.657 18.193h-1.492z"></path>
		<path fill="#fff" d="M217.919 303.079v15.368h3.639c2.589 0 4.615-0.728 6.082-2.186 1.466-1.457 2.199-3.299 2.199-5.526 0-2.244-0.733-4.082-2.199-5.511-1.467-1.431-3.493-2.145-6.082-2.145zM228.726 304.287c1.719 1.657 2.579 3.806 2.579 6.448 0 2.625-0.864 4.779-2.593 6.463s-4.114 2.525-7.154 2.525h-5.051v-17.921h5.051c3.059 0 5.449 0.829 7.168 2.485z"></path>
		<path fill="#fff" d="M244.96 319.723h-1.412v-17.921h1.412z"></path>
		<path fill="#fff" d="M260.87 305.101c-1.466 1.512-2.199 3.39-2.199 5.634s0.733 4.128 2.199 5.648c1.466 1.52 3.303 2.281 5.511 2.281 2.191 0 4.019-0.76 5.485-2.281s2.199-3.403 2.199-5.648c0-2.226-0.738-4.099-2.213-5.62s-3.298-2.281-5.471-2.281c-2.208 0-4.046 0.755-5.511 2.267zM272.872 304.192c1.792 1.774 2.688 3.964 2.688 6.571 0 2.589-0.896 4.774-2.688 6.557s-3.965 2.675-6.517 2.675c-2.57 0-4.743-0.891-6.517-2.675-1.773-1.782-2.66-3.968-2.66-6.557 0-2.607 0.887-4.797 2.66-6.571 1.774-1.774 3.947-2.662 6.517-2.662 2.552 0 4.725 0.888 6.517 2.662z"></path>
		<path fill="#ffc810" d="M185.242 64.184l-59.522 43.475-21.716 71.212 55.562-35.162 58.789 36.613-17.138-67.104 49.024-49.063-64.998 0.028z"></path>
		<path fill="#ec2227" d="M185.244 64.184v-0.002l-0.002 0.002z"></path>
		<path fill="#ec2227" d="M185.242 64.184h0.002z"></path>
		<path fill="#ec2227" d="M159.205 0.007l-0.075 0.19-2.303 7.003-17.899 57.151 46.316-0.167z"></path>
		<path fill="#0fac53" d="M138.927 64.351l-13.202 43.293 59.365-43.459z"></path>
		<path fill="#0fac53" d="M185.244 64.182v0z"></path>
		<path fill="#0fac53" d="M125.725 107.644l-0.005 0.015 59.522-43.474h-0.151z"></path>
		<path fill="#0fac53" d="M138.927 64.351v-0.001z"></path>
		<path fill="#0fac53" d="M185.091 64.184h0.151l0.002-0.002-0.153 0.001z"></path>
		<path fill="#0fac53" d="M185.242 64.184v0h-0.151z"></path>
		<path fill="#0fac53" d="M185.091 64.184v-0.001l-46.164 0.167z"></path>
	</symbol>
	<view id="profm" viewBox="0 0 320 320" />
	<use xlink:href="#logo-profm" width="320" height="320" x="0" y="0"></use>
</svg>
